<?xml version="1.0" encoding="utf-8"?>
<!-- Generator: Adobe Illustrator 16.0.0, SVG Export Plug-In . SVG Version: 6.00 Build 0)  -->
<!DOCTYPE svg PUBLIC "-//W3C//DTD SVG 1.1//EN" "http://www.w3.org/Graphics/SVG/1.1/DTD/svg11.dtd">
<svg version="1.1" id="Layer_1" xmlns="http://www.w3.org/2000/svg" xmlns:xlink="http://www.w3.org/1999/xlink" x="0px" y="0px"
	 width="300px" height="300px" viewBox="0 0 300 300" enable-background="new 0 0 300 300" xml:space="preserve">
<g>
	<path d="M150,14c36.327,0,70.479,14.146,96.167,39.833C271.854,79.521,286,113.673,286,150s-14.146,70.479-39.833,96.167
		C220.479,271.854,186.327,286,150,286s-70.479-14.146-96.167-39.833C28.146,220.479,14,186.327,14,150s14.146-70.479,39.833-96.167
		S113.673,14,150,14 M150,0C67.157,0,0,67.157,0,150s67.157,150,150,150s150-67.157,150-150S232.843,0,150,0L150,0z"/>
</g>
</svg>
